<svg id="Capa_1" data-name="Capa 1" xmlns="http://www.w3.org/2000/svg" viewBox="0 0 2141 380"><defs><style>.cls-1{fill:#1b90a1;}</style></defs><title>Capa 2-</title><path class="cls-1" d="M-173,900H1968l-1-210.68-19.67-38-25.22,38v47.14h-22.19l-11.09-8.66h-19.67V672h-42.37v36.56h-13.62V686.91H1794l-7.06,16.36v77.44c0,2.31-6.73,1-10.09,0V617.65l-24.21-9.14V564.73l-46.4,23.57V724.91h-11.1V700.38h-9.08v22.13H1677V711.92l-17.15,7.22v23.09h-18.66V724.91h-12.61v-10.1h-20.18V638.33H1597.3v-50h-12.11C1578.8,597,1566,615,1566,617.65v88h-28.75V650.35h-12.11l-9.58-14.91H1493.4l-5.05,20.69v146.7h-8.57V862h-8.57V802.83h-14.63v-10.1h-35.3v-50.5h-9.08v-151h-35.81V574.84h-22.7v16.35h-13.62v85.62h-16.14v82.25h-7.06V676.81h-4V642.66l-44.38,5.77v41.85H1250.3V647h-5V617.16L1235.17,609h-7.57l-10.08,9.14V651.8h-4c.17,28.06.4,84.66,0,86.58s-9.25.8-13.62,0v-30.3h-22.69v12.5h-13.62V698.46h-25.22v-93.8h-11.1V583l-20.17,13-37.83-17.32V704.23h-5v34.15h-4.54v56.28h-26.73v-151h-9.08V621.49l-13.62-16.83v8.66H996.1v42.33h-8.57V634.48h-22.7v9.14l-49.43,12v68.78h-4v48.1H897.75v22.13H887.67V772.53h-22.2V583H824.12v-6.25H812V564.25h-5V539.72h-5.05V583h-9.07v4.33h-4.54V800.91h-8.58V698.46h-8.57V664.79H757.54c-.17,8.33-.4,25,0,25H738.88V621.49H725.26V553.67l-9.08-13.95H690V689.8h-5.05v22.6h-4v13h-5.55v-9.14H662.72v-64H645.07v20.2H640V747h-9.58V725.39h-8.57v-26L581,689.8V574.35H567.4V556.56H549.24v4.33H531.59L531.08,608l-35.3,13.46V647h-5V759.06H486.2V689.8H444.84V621.49l-22.19-16.35h-54v34.63h-4.54v68.31H346V689.8l-13.61,9.14v9.14H314.71v35.11h-5.54v-164L292.52,568.1,290,520l-2.52,48.1-34.8-15.39v203H242.09v-26L236,716.25l-12.1,13.47v26h-4.54V676.81H206.28V549.34l-16.14-11.06L175,549.34V621h-5.55V689.8H156.85V655.65H151.3v-39L129.61,648v68.3H116V793.7H101.88V708.56l-13.12,13H79.68V643.62H65.56v-9.14H38.33V648H21.18v38.48H7.56V747H1V591.19l-10.59-7.7H-29.76l-7.57,7.7V760.51h-4V684h-7.06V641.7l-29.26,27.9v90.91h-6v15.87h-9.08V760.51h-5l-4-209.24-71.11,12Z" transform="translate(173 -520)"/></svg>