<svg id="Capa_1" data-name="Capa 1" xmlns="http://www.w3.org/2000/svg" viewBox="0 0 2820 501"><defs><style>.cls-1{fill:#115863;}</style></defs><title>Capa 3-</title><path class="cls-1" d="M0,900H2820l-1.33-277.77-25.91-50.1-33.21,50.1v62.15h-29.23L2715.7,673h-25.91V599.4H2634v48.2h-17.93V619.06h-25.25l-9.3,21.56v102.1c0,3-8.86,1.27-13.28,0v-215l-31.89-12V458l-61.12,31.07V669.16h-14.61V636.82h-12V666h-12V652l-22.58,9.51V692h-24.58V669.16h-16.61V655.84h-26.57V555h-14.62v-66h-15.94c-8.42,11.42-25.25,35.14-25.25,38.69v116h-37.86V570.86h-15.95l-12.62-19.66h-29.23l-6.64,27.27V771.9H2177v78h-11.3v-78h-19.26V758.58h-46.5V692h-12V492.86h-47.17V471.3h-29.89v21.56h-17.94V605.74h-21.26V714.19h-9.3V605.74h-5.31v-45l-58.46,7.61V623.5h-23.91V566.42H1868V527.1l-13.28-10.78h-10l-13.28,12v44.39h-5.32c.22,37,.53,111.62,0,114.16s-12.18,1.05-17.94,0V647h-29.89v16.49h-17.94V634.28h-33.21V510.61h-14.62V482.08L1686,499.2l-49.82-22.83V641.89h-6.65v45h-6v74.19h-35.21V562h-12V532.81l-17.94-22.2V522h-18.6v55.81h-11.29V549.93h-29.89V562l-65.11,15.86v90.68h-5.31v63.42h-17.94v29.17h-13.28V731.94h-29.23V482.08h-54.48v-8.25H1297.4V457.34h-6.64V425h-6.65v57.08h-11.95v5.7h-6V769.36h-11.3V634.28h-11.29V589.89h-17.94c-.22,11-.53,33,0,33h-24.58V532.81h-17.93V443.39l-12-18.39h-34.54V622.87H1130v29.8h-5.31v17.12h-7.31v-12h-16.61V573.4h-23.25V600h-6.64v98.3h-12.62V669.79H1047V635.55l-53.8-12.68V470.66H975.21V447.2H951.29v5.71H928l-.66,62.14-46.5,17.76v33.61h-6.65V714.19h-6V622.87H813.78V532.81l-29.23-21.56H713.47v45.66h-6V647H683.58V622.87l-17.94,12V647H642.39v46.3h-7.31V477l-21.92-14.58L609.84,399l-3.32,63.42-45.84-20.3V709.75H546.73V675.5l-8-17.76-16,17.76v34.25h-6v-104H499.56V437.68L478.3,423.1l-19.92,14.58v94.5h-7.31v90.69H434.46v-45h-7.31V526.47l-28.56,41.22v90H380.65V759.85h-18.6V647.6l-17.27,17.12h-12V562h-18.6V549.93H278.35v17.76H255.76v50.74H237.82v79.9h-8.63V492.86l-13.95-10.15H188.66l-10,10.15V716.09h-5.32V615.25h-9.29v-55.8l-38.53,36.78V716.09h-8V737h-12V716.09H99L93.67,440.22,0,456.08Z" transform="translate(0 -399)"/></svg>