<svg width="1440" height="271" viewBox="0 0 1440 271" fill="none" xmlns="http://www.w3.org/2000/svg">
<path d="M0 270.636V206.538H51.5497V179.746H66.472V131.927H70.5417V92.9251H78.342V73.594H84.7857V92.9251L94.2817 96.3165V183.815H103.099V201.451H114.969V143.118H123.448V77.3245L126.839 73.594H132.605V62.0631H139.049V27.4706H145.153V65.7937H156.006C163.919 62.5153 180.22 55.9586 182.12 55.9586C184.019 55.9586 182.911 136.222 182.12 176.354H202.129V96.3165L206.538 90.212H226.208L229.6 98.6905V150.24L271.653 165.163H289.628V43.0711C300.254 47.593 321.507 56.5012 321.507 55.9586V190.259H343.552V146.849H352.708V127.518H356.439V66.8111H358.813V127.518H364.578V110.9H367.292V127.518H369.326V150.24H393.745V127.518H397.475V150.24H404.597V194.329H421.554V211.964H450.382V114.969L472.765 102.76V91.2294H476.156V69.5243L487.009 60.3674H498.879V91.2294H501.931V105.473H511.088V172.624H520.584V169.911V160.415H523.975V146.849H525.671V160.415H528.384H533.811V172.624H538.219V205.521L540.254 209.929H546.02L548.394 205.521V51.5497H573.49L588.413 109.882V242.487H597.569V209.929H606.387V153.293H615.883L622.327 159.058V187.885H628.092V179.407H630.466V187.885H641.997V205.521H644.032L661.667 88.1771V25.4357H668.111V28.488H691.512V14.5831H709.826V31.2011H716.269V34.9317V114.63H731.531V88.1771H742.383L744.418 85.464H756.967V109.882H760.358V114.63H769.515L771.889 111.917V70.2025H783.081L790.542 76.6463V115.648H793.933V178.728L799.359 175.676V111.917H800.716V79.3594H803.09V42.3928L808.516 48.1583V88.8554H811.908V115.648H814.96V160.415H821.065V139.049H823.438V127.179H827.169V124.126H839.039V103.439H842.43V122.091H845.822V154.988H857.353V187.885H862.779L860.405 45.4451H875.667V42.3928H878.719V6.10457H884.823V27.1314H890.589V42.3928H899.746V39.0014H911.616V36.2883H930.947V33.236L948.243 33.5751V124.465H951.295V127.518H954.348V145.831H960.452V187.885H972.661V185.172H976.731V182.12H978.427H981.818V185.172V187.885H984.87V211.964H987.923V54.602H990.975V51.5497H994.027V48.4974H997.08V44.7668H1003.52V42.3928H1006.24H1030.99V33.236H1033.71V0H1036.42V36.2883H1039.81V27.4706H1042.52V33.236H1045.58V36.2883V39.3406H1048.63C1049.44 39.3406 1048.97 42.0537 1048.63 43.4103H1052.36V46.8017H1056.09V128.874H1062.19V174.319H1071.69V183.815H1073.73V189.581H1082.88H1092.38L1093.06 119.717H1098.82V89.1945H1106.28V21.7051H1107.98V89.1945H1110.69V92.2468H1113.07H1122.9V89.1945H1129.68V104.117H1132.06V156.006H1135.11V189.581H1147.32V125.822H1150.37V56.6368H1156.48V53.5846V50.1931H1164.96V41.0363H1189.03V55.6194H1191.75V181.441L1215.83 187.546V210.608H1218.88V157.362H1227.36V153.632H1238.21V147.866H1244.31V156.345L1250.76 159.058V196.703L1286.37 214.677L1281.96 105.473H1286.37V79.0203H1289.42V40.6971L1302.31 31.8794V95.2991H1306.72V109.543L1345.04 95.2991V188.903H1358.94V131.587H1376.24V156.345H1390.15V196.703H1411.85V173.641H1433.22V168.554H1440V270.636H0Z" fill="#96DAE3"/>
</svg>
