<svg width="1440" height="529" viewBox="0 0 1440 529" fill="none" xmlns="http://www.w3.org/2000/svg">
<g filter="url(#filter0_d)">
<path d="M-1 511H2819L2817.67 233.23L2791.76 183.13L2758.55 233.23V295.38H2729.32L2714.7 283.965H2688.79V210.4H2632.99V258.597H2615.06V230.059H2589.81L2580.51 251.622V353.724C2580.51 356.768 2571.65 354.992 2567.23 353.724V138.738L2535.34 126.689V68.9785L2474.22 100.053V280.159H2459.61V247.816H2447.65V276.989H2435.69V263.037L2413.11 272.549V302.99H2388.53V280.159H2371.92V266.842H2345.35V166.008H2330.73V100.053H2314.79C2306.37 111.468 2289.54 135.187 2289.54 138.738V254.792H2251.68V181.862H2235.73L2223.11 162.203H2193.88L2187.24 189.472V382.896H2175.95V460.9H2164.65V382.896H2145.39V369.578H2098.89V302.99H2086.93V103.858H2039.76V82.2962H2009.87V103.858H1991.93V216.742H1970.67V325.186H1961.37V216.742H1956.06V171.715L1897.6 179.325V234.499H1873.69V177.423H1867.04V138.104L1853.76 127.323H1843.79L1830.51 139.372V183.765H1825.19C1825.41 220.758 1825.72 295.38 1825.19 297.916C1824.66 300.453 1813.01 298.973 1807.25 297.916V257.963H1777.36V274.452H1759.42V245.28H1726.21V121.615H1711.59V93.0772L1685.02 110.2L1635.2 87.3696V252.89H1628.55V297.916H1622.58V372.115H1587.37V172.984H1575.41V143.811L1557.47 121.615V133.03H1538.87V188.838H1527.58V160.934H1497.69V172.984L1432.58 188.838V279.525H1427.27V342.943H1409.33V372.115H1396.05V342.943H1366.82V93.0772H1312.34V84.8329H1296.4V68.3443H1289.76V36.0013H1283.11V93.0772H1271.16V98.7848H1265.18V380.359H1253.88V245.28H1242.59V200.887H1224.65C1224.43 211.88 1224.12 233.865 1224.65 233.865H1200.07V143.811H1182.14V54.3924L1170.18 36.0013H1135.64V233.865H1128.99V263.671H1123.68V280.794H1116.37V268.744H1099.76V184.399H1076.51V211.034H1069.87V309.332H1057.25V280.794H1045.95V246.548L992.145 233.865V81.662H974.208V58.1975H950.293V63.9051H927.042L926.378 126.054L879.876 143.811V177.423H873.233V325.186H867.254V233.865H812.781V143.811L783.551 122.249H712.47V167.91H706.491V257.963H682.576V233.865L664.64 245.914V257.963H641.389V304.258H634.081V88.0038L612.159 73.4177L608.837 10L605.516 73.4177L559.678 53.1241V320.747H545.728V286.501L537.756 268.744L521.813 286.501V320.747H515.834V216.742H498.562V48.6848L477.304 34.0987L457.375 48.6848V143.177H450.067V233.865H433.459V188.838H426.152V137.47L397.587 178.691V268.744H379.65V370.847H361.049V280.159V258.597L343.777 275.72H331.82V172.984H313.219V160.934H277.346V178.691H254.76V229.425H236.823V309.332H228.187V103.858L214.237 93.7114H187.664L177.7 103.858V327.089H172.385V226.254H163.085V170.447L124.555 207.229V327.089H116.583V348.016H104.625V327.089H97.9823L92.6678 51.2215L-1 67.076V511Z" fill="#115863"/>
</g>
<defs>
<filter id="filter0_d" x="-4" y="0" width="2848" height="529" filterUnits="userSpaceOnUse" color-interpolation-filters="sRGB">
<feFlood flood-opacity="0" result="BackgroundImageFix"/>
<feColorMatrix in="SourceAlpha" type="matrix" values="0 0 0 0 0 0 0 0 0 0 0 0 0 0 0 0 0 0 127 0"/>
<feOffset dx="11" dy="4"/>
<feGaussianBlur stdDeviation="7"/>
<feColorMatrix type="matrix" values="0 0 0 0 0 0 0 0 0 0 0 0 0 0 0 0 0 0 0.25 0"/>
<feBlend mode="normal" in2="BackgroundImageFix" result="effect1_dropShadow"/>
<feBlend mode="normal" in="SourceGraphic" in2="effect1_dropShadow" result="shape"/>
</filter>
</defs>
</svg>
