<svg width="1440" height="380" viewBox="0 0 1440 380" fill="none" xmlns="http://www.w3.org/2000/svg">
<path d="M-673 380H1468L1466.99 169.316L1447.32 131.316L1422.1 169.316V216.456H1399.91L1388.82 207.797H1369.15V152H1326.78V188.557H1313.16V166.911H1294L1286.94 183.266V260.709C1286.94 263.018 1280.21 261.671 1276.85 260.709V97.6456L1252.64 88.5063V44.7342L1206.24 68.3038V204.911H1195.14V180.38H1186.06V202.506H1176.99V191.924L1159.84 199.139V222.228H1141.18V204.911H1128.57V194.81H1108.39V118.329H1097.3V68.3038H1085.19C1078.8 76.962 1066.03 94.9519 1066.03 97.6456V185.671H1037.28V130.354H1025.17L1015.59 115.443H993.399L988.355 136.127V282.835H979.781V342H971.207V282.835H956.581V272.734H921.276V222.228H912.197V71.1899H876.388V54.8354H853.692V71.1899H840.074V156.81H823.935V239.063H816.874V156.81H812.839V122.658L768.455 128.43V170.278H750.298V126.987H745.255V97.1646L735.168 88.9873H727.602L717.515 98.1266V131.797H713.48C713.648 159.857 713.884 216.456 713.48 218.38C713.077 220.304 704.234 219.181 699.863 218.38V188.076H677.167V200.582H663.549V178.456H638.331V84.6582H627.235V63.0127L607.061 76L569.234 58.6835V184.228H564.19V218.38H559.651V274.658H532.92V123.62H523.842V101.494L510.224 84.6582V93.3165H496.102V135.646H487.528V114.481H464.832V123.62L415.405 135.646V204.43H411.37V252.532H397.752V274.658H387.665V252.532H365.473V63.0127H324.116V56.7595H312.011V44.2532H306.968V19.7215H301.924V63.0127H292.846V67.3418H288.306V280.911H279.732V178.456H271.158V144.785H257.541C257.372 153.122 257.137 169.797 257.541 169.797H238.879V101.494H225.262V33.6709L216.183 19.7215H189.957V169.797H184.913V192.405H180.878V205.392H175.33V196.253H162.721V132.278H145.069V152.481H140.025V227.038H130.442V205.392H121.868V179.418L81.0153 169.797V54.3544H67.3976V36.557H49.2407V40.8861H31.5882L31.0839 88.0253L-4.22119 101.494V126.987H-9.26483V239.063H-13.804V169.797H-55.1614V101.494L-77.3531 85.1392H-131.319V119.772H-135.859V188.076H-154.016V169.797L-167.633 178.937V188.076H-185.286V223.19H-190.834V59.1646L-207.478 48.1013L-209.999 0L-212.521 48.1013L-247.322 32.7089V235.696H-257.913V209.722L-263.966 196.253L-276.07 209.722V235.696H-280.609V156.81H-293.723V29.3418L-309.862 18.2785L-324.993 29.3418V101.013H-330.541V169.797H-343.15V135.646H-348.698V96.6835L-370.385 127.949V196.253H-384.003V273.696H-398.125V204.911V188.557L-411.238 201.544H-420.317V123.62H-434.439V114.481H-461.674V127.949H-478.822V166.43H-492.44V227.038H-498.996V71.1899L-509.588 63.4937H-529.762L-537.328 71.1899V240.506H-541.363V164.025H-548.424V121.696L-577.676 149.595V240.506H-583.729V256.38H-592.807V240.506H-597.851L-601.886 31.2658L-673 43.2911V380Z" fill="#1B90A1"/>
</svg>
