<svg id="Capa_1" data-name="Capa 1" xmlns="http://www.w3.org/2000/svg" viewBox="0 0 1800 270.64"><defs><style>.cls-1{fill:#96dae3;}</style></defs><title>Capa 1-</title><path class="cls-1" d="M0,900V835.9H64.44V809.11H83.09V761.29h5.09v-39h9.75V703h8v19.33l11.87,3.39v87.5h11v17.64h14.84V772.48h10.6V706.69l4.24-3.73h7.21V691.43h8.05v-34.6h7.63v38.33H195c9.89-3.28,30.27-9.84,32.64-9.84s1,80.27,0,120.4h25v-80l5.51-6.1h24.59l4.24,8.47V779.6l52.57,14.93H362V672.44c13.29,4.52,39.85,13.43,39.85,12.88v134.3h27.56V776.21h11.45V756.88h4.66v-60.7h3v60.7h7.2V740.26h3.39v16.62h2.55V779.6h30.52V756.88h4.66V779.6h8.91v44.09h21.19v17.64h36v-97l28-12.21V720.59h4.24v-21.7l13.56-9.16H623.6v30.86h3.81v14.25h11.45V802h11.87V789.78H655V776.21h2.12v13.57h10.17V802h5.51v32.9l2.55,4.4h7.21l3-4.4v-154h31.37l18.66,58.34v132.6H747V839.29h11V782.66h11.87l8.06,5.76v28.83h7.2v-8.48h3v8.48H802.5v17.64H805l22-117.35V654.8h8.06v3.05h29.25V644h22.89v16.62h8.06V744h19.07V717.54H928l2.54-2.71h15.69v24.42h4.24V744h11.44l3-2.71V699.57h14l9.33,6.44v39h4.24v63.08L999.2,805V741.28h1.7V708.72h3v-37l6.78,5.76v40.7h4.25V745h3.81v44.77h7.63V768.41h3V756.54H1034v-3h14.84V732.8H1053v18.66h4.24v32.89h14.41v32.9h6.78l-3-142.44h19.07v-3h3.82V635.47H1106v21h7.21v15.26h11.44v-3.39h14.84v-2.72h24.16v-3l21.62.34v90.89h3.82v3h3.82V775.2h7.63v42h15.26v-2.71h5.08v-3.06h6.36v5.77h3.82v24.08h3.81V684h3.82v-3.06h3.81v-3h3.82v-3.73h8.05v-2.37h34.34V662.6h3.4V629.36h3.39v36.29h4.23v-8.82h3.39v5.77H1307v6.1h3.82c1,0,.42,2.72,0,4.07h4.66v3.4h4.66v82.07h7.63v45.44h11.87v9.5h2.55V819h23.32l.85-69.87h7.19V718.56h9.33V651.07H1385v67.49h3.39v3.05h15.27v-3.05h8.47v14.92h3v51.89h3.81V819h15.26V755.19H1438V686h7.64v-6.44h10.6V670.4h30.09V685h3.4V810.81l30.1,6.1V840h3.81V786.73h10.6V783h13.56v-5.77h7.63v8.48l8.06,2.71v37.65L1608,844l-5.51-109.2H1608V708.38h3.82V670.06l16.11-8.82v63.42h5.51v14.25l47.9-14.25v93.61h17.37V761h21.63v24.76h17.39v40.36h27.12V803h26.71v-5.09H1800V900Z" transform="translate(0 -629.36)"/></svg>