<svg width="362" height="85" viewBox="0 0 362 85" fill="none" xmlns="http://www.w3.org/2000/svg">
<path d="M141.258 52.4534C144.724 53.5511 147.44 55.4 149.404 58C151.369 60.5422 152.351 63.6911 152.351 67.4467C152.351 72.7622 150.271 76.8645 146.111 79.7533C142.009 82.5844 136 84 128.084 84H96.7109V23.3334H126.351C133.746 23.3334 139.409 24.7489 143.338 27.5801C147.324 30.4112 149.318 34.2534 149.318 39.1067C149.318 42.0534 148.595 44.6823 147.151 46.9934C145.764 49.3045 143.8 51.1245 141.258 52.4534ZM110.664 33.9067V48.2067H124.618C128.084 48.2067 130.713 47.6 132.504 46.3867C134.295 45.1734 135.191 43.3823 135.191 41.0134C135.191 38.6445 134.295 36.8823 132.504 35.7267C130.713 34.5134 128.084 33.9067 124.618 33.9067H110.664ZM127.044 73.4267C130.742 73.4267 133.515 72.82 135.364 71.6067C137.271 70.3933 138.224 68.5156 138.224 65.9734C138.224 60.9467 134.498 58.4334 127.044 58.4334H110.664V73.4267H127.044ZM174.94 43.5267C176.558 41.2734 178.725 39.5689 181.44 38.4134C184.214 37.2578 187.391 36.6801 190.974 36.6801V49.16C189.471 49.0445 188.46 48.9867 187.94 48.9867C184.069 48.9867 181.036 50.0845 178.84 52.28C176.645 54.4178 175.547 57.6534 175.547 61.9867V84H162.027V37.3734H174.94V43.5267ZM199.351 37.3734H212.871V84H199.351V37.3734ZM206.111 30.8734C203.627 30.8734 201.605 30.1512 200.045 28.7067C198.485 27.2623 197.705 25.4712 197.705 23.3334C197.705 21.1956 198.485 19.4045 200.045 17.9601C201.605 16.5156 203.627 15.7934 206.111 15.7934C208.596 15.7934 210.618 16.4867 212.178 17.8734C213.738 19.2601 214.518 20.9934 214.518 23.0734C214.518 25.3267 213.738 27.2045 212.178 28.7067C210.618 30.1512 208.596 30.8734 206.111 30.8734ZM247.952 84.6933C242.983 84.6933 238.506 83.6822 234.519 81.66C230.59 79.58 227.499 76.72 225.246 73.08C223.05 69.44 221.952 65.3089 221.952 60.6867C221.952 56.0645 223.05 51.9334 225.246 48.2934C227.499 44.6534 230.59 41.8223 234.519 39.8C238.506 37.72 242.983 36.6801 247.952 36.6801C252.863 36.6801 257.139 37.72 260.779 39.8C264.477 41.8223 267.163 44.74 268.839 48.5534L258.352 54.1867C255.926 49.9111 252.43 47.7734 247.866 47.7734C244.341 47.7734 241.423 48.9289 239.112 51.24C236.801 53.5511 235.646 56.7 235.646 60.6867C235.646 64.6734 236.801 67.8222 239.112 70.1333C241.423 72.4445 244.341 73.6 247.866 73.6C252.488 73.6 255.983 71.4622 258.352 67.1867L268.839 72.9067C267.163 76.6045 264.477 79.4933 260.779 81.5733C257.139 83.6533 252.863 84.6933 247.952 84.6933ZM296.643 65.7134L290.143 72.1267V84H276.623V19.6934H290.143V56.0934L309.903 37.3734H326.023L306.61 57.1334L327.757 84H311.377L296.643 65.7134Z" fill="#ED4040"/>
<path d="M338.95 84.6933C336.581 84.6933 334.588 83.8844 332.97 82.2667C331.352 80.6489 330.543 78.6267 330.543 76.2C330.543 73.7156 331.352 71.7222 332.97 70.22C334.588 68.66 336.581 67.88 338.95 67.88C341.319 67.88 343.312 68.66 344.93 70.22C346.548 71.7222 347.357 73.7156 347.357 76.2C347.357 78.6267 346.548 80.6489 344.93 82.2667C343.312 83.8844 341.319 84.6933 338.95 84.6933Z" fill="#B20000"/>
<path d="M41.3974 28.6443L1 43.5771C1 43.5771 71.914 54.3121 75.2599 54.9054C78.6057 55.4988 79.6832 56.7259 79.6832 60.333V80.6517L112.847 68.1126C113.078 62.3278 112.847 47.6826 112.847 45.3724C112.847 43.0622 112.847 38.9428 104.37 37.9129L41.3974 28.6443Z" fill="#C81717"/>
<path d="M41.3974 28.6443L1 43.5771C1 43.5771 71.914 54.3121 75.2599 54.9054C78.6057 55.4988 79.6832 56.7259 79.6832 60.333V80.6517L112.847 68.1126C113.078 62.3278 112.847 47.6826 112.847 45.3724C112.847 43.0622 112.847 38.9428 104.37 37.9129L41.3974 28.6443Z" fill="url(#paint0_linear)"/>
<path d="M41.3974 28.6443L1 43.5771C1 43.5771 71.914 54.3121 75.2599 54.9054C78.6057 55.4988 79.6832 56.7259 79.6832 60.333V80.6517L112.847 68.1126C113.078 62.3278 112.847 47.6826 112.847 45.3724C112.847 43.0622 112.847 38.9428 104.37 37.9129L41.3974 28.6443Z" stroke="white" stroke-width="5.34671"/>
<defs>
<linearGradient id="paint0_linear" x1="61.002" y1="-0.191495" x2="91.0455" y2="73.8321" gradientUnits="userSpaceOnUse">
<stop offset="0.659864" stop-color="#ED4040"/>
<stop offset="0.793285" stop-color="#AC2D2D"/>
</linearGradient>
</defs>
</svg>
